PathFileType	4	(X/Y/Z)	/Users/niels/Desktop/University/Third Semester/Perception and Action/Exam/Gymnastics Motion Tracking/Code for Gym Tracking/Analyzed Data/Webcam_Backflip/idid 15_1_trajectory_Sports2D/idid 15_1_trajectory_Sports2D_px_person00.trc
DataRate	CameraRate	NumFrames	NumMarkers	Units	OrigDataRate	OrigDataStartFrame	OrigNumFrames
29.702970297029704	29.702970297029704	9	22	m	29.702970297029704	0	101
Frame#	Time	Hip			RHip			RKnee			RAnkle			RBigToe			RSmallToe			RHeel			LHip			LKnee			LAnkle			LBigToe			LSmallToe			LHeel			Neck			Head			Nose			RShoulder			RElbow			RWrist			LShoulder			LElbow			LWrist		
		X1	Y1	Z1	X2	Y2	Z2	X3	Y3	Z3	X4	Y4	Z4	X5	Y5	Z5	X6	Y6	Z6	X7	Y7	Z7	X8	Y8	Z8	X9	Y9	Z9	X10	Y10	Z10	X11	Y11	Z11	X12	Y12	Z12	X13	Y13	Z13	X14	Y14	Z14	X15	Y15	Z15	X16	Y16	Z16	X17	Y17	Z17	X18	Y18	Z18	X19	Y19	Z19	X20	Y20	Z20	X21	Y21	Z21	X22	Y22	Z22
0	0.0	0.8398497978534732	-0.2545479589077859	0.0	0.7728691529946887	-0.23650632353076223	0.0	0.7908155816762057	-0.44266748799868855	0.0	0.7418938053300751	-0.7700367702453236	0.0	0.747003290636146	-0.8654302392720739	0.0	0.6954672695880526	-0.8525160974799176	0.0	0.7341821502450048	-0.8061371384452655	0.0	0.9017150812757239	-0.26485717291858357	0.0	0.922302081484991	-0.5071290428771468	0.0	0.834687840288421	-0.7882272562257553	0.0	0.904292473075252	-0.8526646221190555	0.0	0.9120173849417028	-0.8449392767461724	0.0	0.8037667557398168	-0.8269140530192729	0.0	0.8887648679150827	0.0030567452465940824	0.0	-0.8194085758583146	0.7748882712845345	0.0	0.9325849589720995	0.13194559523239285	0.0	0.7702167908400234	0.005642047355047729	0.0	0.7522993859190014	-0.030341752636392355	0.0	0.9223369184313799	-0.04826969468619994	0.0	0.991896926515454	-0.014888730909389426	0.0	0.9765021025069663	-0.13600925268540898	0.0	0.9816964625881213	-0.19011423220482657	0.0
1	0.033666666666666664	0.8434757316425167	-0.25792159543276955	0.0	0.7796300770210864	-0.24305911143884543	0.0	0.8036044850578467	-0.4678610273353753	0.0	0.748527406616723	-0.753062274428623	0.0	0.768276002612139	-0.84570184496375	0.0	0.7236772482409093	-0.8376110165786831	0.0	0.7366334816160072	-0.7817568761377252	0.0	0.9008898365062964	-0.2661800533851677	0.0	0.9235131303804518	-0.505479591317574	0.0	0.8494023173191346	-0.7810447074420515	0.0	0.9095863703476759	-0.8416370316582119	0.0	0.9196620872060098	-0.8357243922526835	0.0	0.8199526249910494	-0.8175872848693215	0.0	0.880124874339039	-0.003355085940677729	0.0	-0.34343287952373175	0.560662248195068	0.0	0.9268370377993304	0.10299239149271126	0.0	0.7798808270787437	0.007192920408727646	0.0	0.7582182978198382	-0.02983438057734269	0.0	0.9231536088762361	-0.06297105853553307	0.0	0.9744994972970111	-0.015989483270219255	0.0	0.9431448479443975	-0.13234474333909357	0.0	0.9631984814080669	-0.20517005664938945	0.0
2	0.06733333333333333	0.8722401476119445	-0.26975505355547974	0.0	0.8127782851108215	-0.2578755908476533	0.0	0.8411045036775531	-0.4941067908979619	0.0	0.7824200603562976	-0.7396666928780864	0.0	0.8149324349280757	-0.8272030460226931	0.0	0.7771755805768275	-0.8235123386131695	0.0	0.7671166945454282	-0.7618770280707136	0.0	0.9245303344080726	-0.2760456472619007	0.0	0.9494744870538818	-0.5082660446268994	0.0	0.8898194068148628	-0.7731798680252367	0.0	0.9417956243736195	-0.8288132578476493	0.0	0.9532542409830363	-0.8246024629822435	0.0	0.862134378367364	-0.807574544650559	0.0	0.898751477784464	-0.02029567077458315	0.0	0.12883975117956986	0.3481474214717271	0.0	0.9477556200504876	0.061261464812101735	0.0	0.8158301758345454	-0.004381848829962887	0.0	0.7920119508451038	-0.04486048851763435	0.0	0.9504487074472806	-0.09245403323610843	0.0	0.9829907058077472	-0.029099309779716555	0.0	0.9388832353352489	-0.14246678516046601	0.0	0.9721800868074263	-0.227827307788093	0.0
3	0.10099999999999999	0.9463590386023675	-0.29672521107546207	0.0	0.8933385761957285	-0.28740927239572445	0.0	0.9231413813601552	-0.5222220173534429	0.0	0.864910795865957	-0.7316735655668172	0.0	0.9063844957379275	-0.8104078486795051	0.0	0.8752646710217278	-0.8102706852780762	0.0	0.8476361479948021	-0.7490086878666783	0.0	0.9923604630656316	-0.301186137544095	0.0	1.0197228333803485	-0.518950334452804	0.0	0.9753894377420069	-0.7645183741651893	0.0	1.0212981755204127	-0.813521303909496	0.0	1.0324062909289358	-0.8107810837612655	0.0	0.9498109750643966	-0.7965212775733208	0.0	0.9655220148829666	-0.05668036984149777	0.0	0.5853770628369547	0.14282675836410388	0.0	1.0155800595661058	-0.0004057266313522438	0.0	0.8984505516640268	-0.039772580957033	0.0	0.8752555279888578	-0.08676836607057319	0.0	1.02306021248506	-0.1457940391957203	0.0	1.0374991486210463	-0.06408238557452405	0.0	0.9872868390073912	-0.174981057757033	0.0	1.0294202541941089	-0.26426292116370953	0.0
4	0.13466666666666666	1.0775097669310665	-0.3419538288980361	0.0	1.0331965017110314	-0.3346871605304347	0.0	1.0611752147746534	-0.5524421698081616	0.0	1.0075256065673657	-0.7284143085676319	0.0	1.0527744660601712	-0.7946590779233288	0.0	1.028111465628536	-0.7969063658926366	0.0	0.9900375150302249	-0.7426938754912119	0.0	1.1158589985923528	-0.34465466824754737	0.0	1.144972402583043	-0.539068757256646	0.0	1.1159274419581542	-0.755374112096059	0.0	1.1580843660109257	-0.7963815506877883	0.0	1.1668138671526693	-0.7947711647666783	0.0	1.0925235418356811	-0.7843189889469045	0.0	1.0911458384904071	-0.11820055304265739	0.0	1.0040223543141502	-0.04524185317915526	0.0	1.140246407791058	-0.08273105794056042	0.0	1.0386696649451477	-0.10491868416190357	0.0	1.0193232340309946	-0.1595786219518669	0.0	1.1496195757525471	-0.22443779326817243	0.0	1.148635099694711	-0.12647568858656313	0.0	1.1013023499755141	-0.23195693135387868	0.0	1.1455307463033702	-0.3174189009449093	0.0
5	0.16833333333333333	1.2545255277151413	-0.4014031598918914	0.0	1.2203979550355648	-0.39576279555707106	0.0	1.24399263250756	-0.5830393225833911	0.0	1.1975521870387427	-0.727908372873715	0.0	1.2417086260342038	-0.7795076172136896	0.0	1.2232169192888327	-0.7829756336331974	0.0	1.1812968784895572	-0.7407247531006828	0.0	1.2842655505723641	-0.40236557995742894	0.0	1.313794897516823	-0.5666474670576935	0.0	1.2987163108064301	-0.7462564422651392	0.0	1.3388254116433633	-0.7790117910595242	0.0	1.3436485082690648	-0.77812636241934	0.0	1.2768910217011045	-0.7713600165648423	0.0	1.2635423127549508	-0.2009955693010092	0.0	1.3519436064670467	-0.20121295856163382	0.0	1.309358483766765	-0.1782720272244825	0.0	1.2242472165442184	-0.19463902053752796	0.0	1.2110626117329257	-0.255300392680788	0.0	1.3171976380912858	-0.3201388237869193	0.0	1.3051686650801342	-0.21160702217756203	0.0	1.2689700759272922	-0.30695991447221216	0.0	1.3086879013810464	-0.3833382862569818	0.0
6	0.20199999999999999	1.4315376847198442	-0.461775573605693	0.0	1.4069681030366807	-0.4573567827902365	0.0	1.425604397777015	-0.6094315961650779	0.0	1.3863025251818044	-0.7288875946366469	0.0	1.4267717491737857	-0.7666395379923518	0.0	1.4134174023551176	-0.7705314178937315	0.0	1.371800459797968	-0.7414764139668893	0.0	1.4530258132131912	-0.461234159234114	0.0	1.4819848241985107	-0.5953911338533591	0.0	1.4776733842781624	-0.7380711592445482	0.0	1.5168630611103824	-0.7639287578063831	0.0	1.5174392131085215	-0.7633399464181121	0.0	1.4559887726711562	-0.7591891575175405	0.0	1.4376163178707424	-0.28618444541623217	0.0	1.5927067796372592	-0.3087057125438387	0.0	1.4789026721506857	-0.26827071080048004	0.0	1.4084474365690385	-0.2878018915586715	0.0	1.4011352222995506	-0.3519311550439455	0.0	1.4811138581085106	-0.41384076344862225	0.0	1.4643456650273887	-0.30015393722038847	0.0	1.443196985094813	-0.3831374481915991	0.0	1.4743568223916996	-0.44894520395964355	0.0
7	0.23566666666666664	1.543358948581969	-0.5057455966003314	0.0	1.5249874699552006	-0.5018971717487555	0.0	1.5406014554797147	-0.6259782165625822	0.0	1.505374018126115	-0.7316663171149659	0.0	1.542522106204919	-0.7596575616837115	0.0	1.5320168344574308	-0.7636157674591286	0.0	1.492006151252073	-0.745069019239958	0.0	1.5589103631171852	-0.5043611330063146	0.0	1.587388567722616	-0.6172464659916342	0.0	1.5882327487481382	-0.7320244261318439	0.0	1.627760776728361	-0.7539752898545682	0.0	1.624989997787763	-0.7532029036038286	0.0	1.5652185254920636	-0.7501350671299211	0.0	1.5505402474283192	-0.34676722069677035	0.0	1.701230656183984	-0.35664333497718337	0.0	1.5883640209619496	-0.3278592188667895	0.0	1.5259041080499103	-0.3552519295903285	0.0	1.520528167318797	-0.42215714906239005	0.0	1.578974880260402	-0.48292419820385435	0.0	1.5665917636104794	-0.3654914661159349	0.0	1.558328636139423	-0.4390406884971002	0.0	1.5801151988011854	-0.4972941844593412	0.0
8	0.2693333333333333	1.5440508047402222	-0.5223086343905213	0.0	1.5267714464663082	-0.5181154758126054	0.0	1.5430136839636857	-0.6295540169929259	0.0	1.5067150874878177	-0.7371398850319958	0.0	1.542950937659835	-0.7613394811235218	0.0	1.5321689852942137	-0.7652657341583669	0.0	1.4930716897775616	-0.752358115090952	0.0	1.5575472118097284	-0.5210817012454126	0.0	1.5861522666987389	-0.6271726855507398	0.0	1.5848507463745243	-0.7289127607840722	0.0	1.6263540663969054	-0.7508325298507053	0.0	1.6218356949418156	-0.7493302772360083	0.0	1.560477642545357	-0.7457895282396926	0.0	1.5586059049119636	-0.3646023613804732	0.0	1.6769531142395961	-0.3453729051013284	0.0	1.5961122869578073	-0.341150621063252	0.0	1.5313086604852226	-0.37770307206984205	0.0	1.5210569794273805	-0.4492644951961567	0.0	1.566389301457715	-0.5144455893711134	0.0	1.5704798777501963	-0.39012512627637086	0.0	1.5684017042135734	-0.4611753661609159	0.0	1.582159786018204	-0.5181641901187383	0.0
